<svg xmlns="http://www.w3.org/2000/svg" width="62" height="62" fill="none"><path d="M33.749 9.773c-1.468-1.018-3.41-1.032-4.892-.034l-.56.377-16.945 11.407-.438.295C9.718 22.624 9 23.972 9 25.415v22.581c0 2.394 1.941 4.336 4.336 4.336h25.167c2.395 0 4.336-1.941 4.336-4.336V30.327c0-1.475-.75-2.848-1.99-3.646l-7.23-4.652c-1.404-.903-3.203-.92-4.624-.043l-7.577 4.679c-1.279.79-2.058 2.186-2.058 3.689v11.288h4.212V30.907c0-.386.2-.745.529-.948h.001l6.575-4.06c.365-.225.827-.221 1.188.01l6.252 4.022c.318.205.511.558.511.937v16.136c0 .616-.499 1.115-1.115 1.115H14.327c-.616 0-1.115-.499-1.115-1.115V25.942c0-.371.184-.717.492-.924l16.944-11.407c.381-.256.88-.253 1.257.008l16.405 11.378c.301.21.479.551.479.916v26.418H53V25.395c0-1.421-.697-2.753-1.865-3.563l-.423-.294L33.749 9.773z" fill="#071542"/></svg>